Coordinates
version=1
nRows=13
nColumns=36
inDegrees=yes

Units are S.I. units (second, meters, Newtons, ...)
If the header above contains a line with 'inDegrees', this indicates whether rotational values are in degrees (yes) or radians (no).

endheader
time	pelvis_tilt	pelvis_list	pelvis_rotation	pelvis_tx	pelvis_ty	pelvis_tz	hip_flexion_r	hip_adduction_r	hip_rotation_r	knee_angle_r	knee_angle_r_beta	ankle_angle_r	subtalar_angle_r	mtp_angle_r	hip_flexion_l	hip_adduction_l	hip_rotation_l	knee_angle_l	knee_angle_l_beta	ankle_angle_l	subtalar_angle_l	mtp_angle_l	lumbar_extension	lumbar_bending	lumbar_rotation	arm_flex_r	arm_add_r	arm_rot_r	elbow_flex_r	pro_sup_r	arm_flex_l	arm_add_l	arm_rot_l	elbow_flex_l	pro_sup_l
      4.51250000	      0.66337068	      0.58973968	     -1.49700546	      0.58550572	      0.94402248	     -0.02695136	     -3.86262565	     -3.38679495	    -10.06460784	      0.36962751	      0.00645122	      3.26955842	    -18.86324920	     -7.49999987	     -0.51993314	     -1.67181097	     -4.45150992	      1.21637013	      0.02122966	      0.93962719	     -9.39548444	     -7.49999987	    -11.51776398	      1.33278633	     -2.25419272	      4.35967107	    -11.94933624	     -2.71146303	     37.95744797	     63.69557502	      7.67065647	    -14.44603590	     16.85852197	     32.08980101	     63.90393739
      4.51666670	      0.63110167	      0.60836072	     -1.44892438	      0.58702005	      0.94467964	     -0.02648045	     -3.86712001	     -3.39560099	    -10.02526666	      0.36904557	      0.00644106	      3.25854608	    -18.88790842	     -7.49999987	     -0.54275960	     -1.64874398	     -4.46361963	      1.19392142	      0.02083786	      0.96705390	     -9.45357046	     -7.49999987	    -11.48146689	      1.29393791	     -2.27809357	      4.41920493	    -11.91330686	     -2.71640805	     37.96260854	     63.70174566	      7.73563357	    -14.33317563	     16.87850118	     32.10496811	     63.91460538
      4.52083330	      0.66545589	      0.63814379	     -1.40139721	      0.58619075	      0.94335741	     -0.02596830	     -3.93717968	     -3.41334802	     -9.93409528	      0.36603660	      0.00638854	      2.93248498	    -19.41861151	     -7.49999987	     -0.62045932	     -1.60560030	     -4.25759111	      1.16147440	      0.02027155	      0.81585505	     -9.88510841	     -7.49999987	    -11.45818810	      1.21968706	     -2.26006256	      4.58016555	    -11.69239723	     -3.27694808	     37.56404759	     63.62713065	      8.09849309	    -14.05967013	     16.90687842	     31.40945174	     63.92585414
      4.52500000	      0.81953548	      0.65560110	     -1.34152789	      0.58655260	      0.94529327	     -0.02685301	     -4.16355215	     -3.40697517	    -10.14528418	      0.35673519	      0.00622620	      2.98445077	    -19.11086659	     -7.49999987	     -0.83114001	     -1.58075483	     -4.37448543	      1.11641239	      0.01948507	      1.01439895	     -9.52782390	     -7.49999987	    -11.67958296	      1.18129079	     -2.29628286	      4.68576645	    -11.60173780	     -3.55746738	     37.68154757	     63.48077691	      8.21910391	    -13.93213415	     16.72761991	     31.52206600	     63.75722569
      4.52916670	      0.85668373	      0.67544034	     -1.29343773	      0.58710181	      0.94421051	     -0.02583334	     -4.23966778	     -3.38872988	    -10.21098720	      0.35626569	      0.00621801	      2.96566593	    -19.17372758	     -7.49999987	     -0.91522264	     -1.57222674	     -4.35381866	      1.06401906	      0.01857064	      1.01093300	     -9.59521210	     -7.49999987	    -11.67532115	      1.13713554	     -2.27551464	      4.82140820	    -11.45778025	     -3.88974660	     37.49918253	     63.29977626	      8.39202340	    -13.73957078	     16.46273504	     31.28663028	     63.53757067
      4.53333330	      0.88311832	      0.69383603	     -1.23166703	      0.58687395	      0.94571697	     -0.02659476	     -4.31022590	     -3.37886349	    -10.46932541	      0.35440235	      0.00618549	      3.03235163	    -18.91271556	     -7.49999987	     -0.97177227	     -1.56624356	     -4.31598694	      1.02156129	      0.01782961	      1.02723835	     -9.52748858	     -7.49999987	    -11.63568698	      1.08955366	     -2.24300663	      4.94836422	    -11.33147140	     -4.22187873	     37.20849489	     63.01295974	      8.58882949	    -13.50583634	     16.17856926	     30.96917934	     63.18883794
      4.53750000	      0.92298134	      0.71697445	     -1.19164569	      0.58707869	      0.94649047	     -0.02592543	     -4.36941543	     -3.37442626	    -10.61527470	      0.35045012	      0.00611651	      2.93593632	    -18.94783110	     -7.49999987	     -1.03809577	     -1.54222547	     -4.29919519	      0.97770443	      0.01706416	      0.86368040	     -9.71992615	     -7.49999987	    -11.62010735	      1.04344146	     -2.27174548	      5.06969327	    -11.20915388	     -4.42455273	     37.05828625	     62.95190498	      8.72186466	    -13.39429700	     16.08771817	     30.80226106	     63.08630589
      4.54166670	      0.99050551	      0.73476007	     -1.14113588	      0.58623181	      0.94629194	     -0.02625408	     -4.45090918	     -3.36933264	    -10.84980138	      0.34697714	      0.00605589	      2.96174413	    -18.77765134	     -7.49999987	     -1.12641018	     -1.52450317	     -4.30500663	      0.93271056	      0.01627887	      0.86869101	     -9.65854412	     -7.49999987	    -11.67282172	      0.99409035	     -2.26403328	      5.19831730	    -11.11480986	     -4.65089248	     36.94529600	     62.96734079	      8.88120529	    -13.26471206	     15.91903168	     30.76695268	     63.05172330
      4.54583330	      1.11870092	      0.75000078	     -1.07179021	      0.58611638	      0.94549813	     -0.02520153	     -4.59755134	     -3.35388305	    -11.11536797	      0.33738725	      0.00588852	      3.05772874	    -18.59647146	     -7.49999987	     -1.26017452	     -1.52306376	     -4.32694459	      0.90102013	      0.01572577	      0.85708806	     -9.64143393	     -7.49999987	    -11.82721780	      0.93627571	     -2.32493734	      5.28249154	    -10.98859147	     -4.87995160	     37.05100253	     62.83365209	      8.97457741	    -13.22324300	     15.71883711	     30.95915988	     62.88588256
      4.55000000	      1.15128765	      0.75412861	     -1.03232651	      0.58626098	      0.94412866	     -0.02539548	     -4.64815398	     -3.32970747	    -11.27350802	      0.33502906	      0.00584736	      3.00645495	    -18.65331096	     -7.49999987	     -1.27502683	     -1.52722474	     -4.32003702	      0.88941741	      0.01552326	      0.83528928	     -9.54850217	     -7.49999987	    -11.78739281	      0.87254698	     -2.31460017	      5.34606180	    -10.89947875	     -4.99579063	     36.93697838	     62.85751830	      9.09461107	    -13.15339654	     15.65219650	     30.93302100	     62.89584882
      4.55416670	      1.24835372	      0.75727613	     -0.98146663	      0.58603827	      0.94459089	     -0.02633221	     -4.76009283	     -3.32659493	    -11.36192410	      0.32697255	      0.00570675	      2.97658858	    -18.81116124	     -7.49999987	     -1.36641362	     -1.52511413	     -4.30199607	      0.87393448	      0.01525303	      0.75906207	     -9.63784155	     -7.49999987	    -11.90981061	      0.84535789	     -2.34016884	      5.36843119	    -10.79052398	     -5.29286176	     37.15854135	     62.66244359	      9.15199501	    -13.10164673	     15.39565295	     31.24742164	     62.67155565
      4.55833330	      1.32300339	      0.75877299	     -0.93382799	      0.58504101	      0.94428074	     -0.02514465	     -4.85433504	     -3.30946440	    -11.47671040	      0.31922309	      0.00557149	      3.00706297	    -18.76999220	     -7.49999987	     -1.42336380	     -1.52950670	     -4.41539475	      0.87880427	      0.01533803	      0.94924315	     -9.28432777	     -7.49999987	    -11.97371156	      0.79159955	     -2.34455357	      5.47034810	    -10.66002033	     -5.56225517	     37.10241416	     62.44451873	      9.25491327	    -13.02773380	     15.13521634	     31.34203886	     62.41684278
      4.56250000	      1.37142388	      0.73477634	     -0.81416127	      0.58476504	      0.94408671	     -0.02609959	     -4.92952286	     -3.26818737	    -11.84041357	      0.31754025	      0.00554212	      3.29781296	    -18.30585610	     -7.49999987	     -1.42360163	     -1.54586143	     -4.15894264	      0.86578303	      0.01511076	      0.86761120	     -9.49226572	     -7.49999987	    -12.04688198	      0.80820748	     -2.40529765	      5.55706381	    -10.59504261	     -5.76485881	     37.06619758	     62.26214026	      9.40634083	    -12.96131747	     14.99399826	     31.52458479	     62.21206820
